<mxfile host="app.diagrams.net" agent="Mozilla/5.0 (Macintosh; Intel Mac OS X 10_15_7) AppleWebKit/537.36 (KHTML, like Gecko) Chrome/135.0.0.0 Safari/537.36" version="27.0.9">
  <diagram name="第 1 页" id="qvOM9vtI5AR3HWQQ7c_i">
    <mxGraphModel dx="961" dy="540" grid="1" gridSize="10" guides="1" tooltips="1" connect="1" arrows="1" fold="1" page="1" pageScale="1" pageWidth="827" pageHeight="1169" math="0" shadow="0">
      <root>
        <mxCell id="0" />
        <mxCell id="1" parent="0" />
        <mxCell id="BZagm7KgGD2D7YJSKaLl-5" style="edgeStyle=orthogonalEdgeStyle;rounded=0;orthogonalLoop=1;jettySize=auto;html=1;entryX=0;entryY=0.5;entryDx=0;entryDy=0;startArrow=classic;startFill=1;" edge="1" parent="1" source="BZagm7KgGD2D7YJSKaLl-1" target="BZagm7KgGD2D7YJSKaLl-2">
          <mxGeometry relative="1" as="geometry" />
        </mxCell>
        <mxCell id="BZagm7KgGD2D7YJSKaLl-6" value="数据传输" style="edgeLabel;html=1;align=center;verticalAlign=middle;resizable=0;points=[];" vertex="1" connectable="0" parent="BZagm7KgGD2D7YJSKaLl-5">
          <mxGeometry x="-0.0092" y="2" relative="1" as="geometry">
            <mxPoint y="-8" as="offset" />
          </mxGeometry>
        </mxCell>
        <mxCell id="BZagm7KgGD2D7YJSKaLl-1" value="I/O设备" style="rounded=1;whiteSpace=wrap;html=1;fillColor=#fff2cc;strokeColor=#d6b656;" vertex="1" parent="1">
          <mxGeometry x="60" y="360" width="120" height="60" as="geometry" />
        </mxCell>
        <mxCell id="BZagm7KgGD2D7YJSKaLl-8" style="edgeStyle=orthogonalEdgeStyle;rounded=0;orthogonalLoop=1;jettySize=auto;html=1;startArrow=classic;startFill=1;" edge="1" parent="1" source="BZagm7KgGD2D7YJSKaLl-2" target="BZagm7KgGD2D7YJSKaLl-7">
          <mxGeometry relative="1" as="geometry" />
        </mxCell>
        <mxCell id="BZagm7KgGD2D7YJSKaLl-9" value="数据传输" style="edgeLabel;html=1;align=center;verticalAlign=middle;resizable=0;points=[];" vertex="1" connectable="0" parent="BZagm7KgGD2D7YJSKaLl-8">
          <mxGeometry x="0.0031" relative="1" as="geometry">
            <mxPoint y="-10" as="offset" />
          </mxGeometry>
        </mxCell>
        <mxCell id="BZagm7KgGD2D7YJSKaLl-16" style="edgeStyle=orthogonalEdgeStyle;rounded=0;orthogonalLoop=1;jettySize=auto;html=1;exitX=0.25;exitY=1;exitDx=0;exitDy=0;entryX=0.25;entryY=0;entryDx=0;entryDy=0;" edge="1" parent="1" source="BZagm7KgGD2D7YJSKaLl-2" target="BZagm7KgGD2D7YJSKaLl-15">
          <mxGeometry relative="1" as="geometry" />
        </mxCell>
        <mxCell id="BZagm7KgGD2D7YJSKaLl-18" value="中断通知" style="edgeLabel;html=1;align=center;verticalAlign=middle;resizable=0;points=[];" vertex="1" connectable="0" parent="BZagm7KgGD2D7YJSKaLl-16">
          <mxGeometry x="-0.0635" relative="1" as="geometry">
            <mxPoint x="-30" as="offset" />
          </mxGeometry>
        </mxCell>
        <mxCell id="BZagm7KgGD2D7YJSKaLl-2" value="DMA控制器" style="rounded=1;whiteSpace=wrap;html=1;fillColor=#dae8fc;strokeColor=#6c8ebf;" vertex="1" parent="1">
          <mxGeometry x="280" y="360" width="120" height="60" as="geometry" />
        </mxCell>
        <mxCell id="BZagm7KgGD2D7YJSKaLl-7" value="内存RAM" style="rounded=1;whiteSpace=wrap;html=1;fillColor=#f8cecc;strokeColor=#b85450;" vertex="1" parent="1">
          <mxGeometry x="500" y="360" width="120" height="60" as="geometry" />
        </mxCell>
        <mxCell id="BZagm7KgGD2D7YJSKaLl-17" style="edgeStyle=orthogonalEdgeStyle;rounded=0;orthogonalLoop=1;jettySize=auto;html=1;exitX=0.75;exitY=0;exitDx=0;exitDy=0;entryX=0.75;entryY=1;entryDx=0;entryDy=0;" edge="1" parent="1" source="BZagm7KgGD2D7YJSKaLl-15" target="BZagm7KgGD2D7YJSKaLl-2">
          <mxGeometry relative="1" as="geometry" />
        </mxCell>
        <mxCell id="BZagm7KgGD2D7YJSKaLl-19" value="配置" style="edgeLabel;html=1;align=center;verticalAlign=middle;resizable=0;points=[];" vertex="1" connectable="0" parent="BZagm7KgGD2D7YJSKaLl-17">
          <mxGeometry x="0.0165" y="-1" relative="1" as="geometry">
            <mxPoint x="19" as="offset" />
          </mxGeometry>
        </mxCell>
        <mxCell id="BZagm7KgGD2D7YJSKaLl-15" value="CPU" style="rounded=1;whiteSpace=wrap;html=1;fillColor=#d5e8d4;strokeColor=#82b366;" vertex="1" parent="1">
          <mxGeometry x="280" y="470" width="120" height="60" as="geometry" />
        </mxCell>
      </root>
    </mxGraphModel>
  </diagram>
</mxfile>
